<?xml version="1.0" encoding="utf-8"?>
<!-- Generator: Adobe Illustrator 16.0.0, SVG Export Plug-In . SVG Version: 6.00 Build 0)  -->
<!DOCTYPE svg PUBLIC "-//W3C//DTD SVG 1.1//EN" "http://www.w3.org/Graphics/SVG/1.1/DTD/svg11.dtd">
<svg version="1.1" id="Layer_1" xmlns="http://www.w3.org/2000/svg" xmlns:xlink="http://www.w3.org/1999/xlink" x="0px" y="0px"
	 width="32px" height="32px" viewBox="0 0 32 32" enable-background="new 0 0 32 32" xml:space="preserve">
<path id="linkedin-square-rounded-icon" d="M24.709,4.5H7.291C5.749,4.5,4.5,5.75,4.5,7.291v17.418c0,1.541,1.25,2.791,2.792,2.791
	h17.418c1.541,0,2.791-1.25,2.791-2.791V7.291C27.5,5.75,26.25,4.5,24.709,4.5z M11.815,23.647H8.659V13.451h3.156V23.647z
	 M10.222,12.115c-1.031,0-1.866-0.842-1.866-1.881s0.835-1.882,1.866-1.882s1.867,0.843,1.867,1.882S11.253,12.115,10.222,12.115z
	 M23.643,23.647h-3.141c0,0,0-3.885,0-5.353s-0.558-2.287-1.718-2.287c-1.264,0-1.924,0.854-1.924,2.287c0,1.57,0,5.353,0,5.353
	h-3.027V13.451h3.027v1.373c0,0,0.911-1.685,3.073-1.685s3.709,1.32,3.709,4.052S23.643,23.647,23.643,23.647z"/>
</svg>
